<svg height="512pt" viewBox="-41 0 511 512" width="512pt" xmlns="http://www.w3.org/2000/svg">
    <path
        d="m329.585938 504.488281h-304.574219c-9.390625 0-17-7.609375-17-17v-422.859375c0-9.390625 7.609375-17 17-17h304.574219c9.390624 0 17 7.609375 17 17v422.859375c0 9.390625-7.609376 17-17 17zm0 0"
        fill="#fff" />
    <path
        d="m329.410156 47.628906h-17.988281v403.679688c0 9.484375-7.6875 17.171875-17.175781 17.171875h-286.234375v18.835937c0 9.484375 7.6875 17.171875 17.171875 17.171875h304.226562c9.488282 0 17.175782-7.6875 17.175782-17.171875v-422.511718c0-9.488282-7.6875-17.175782-17.175782-17.175782zm0 0"
        fill="#fff" />
    <path
        d="m234.496094 77.207031h-114.394532c-5.523437 0-10-4.476562-10-10v-35.695312c0-13.253907 10.746094-24 24-24h86.394532c13.253906 0 24 10.746093 24 24v35.695312c0 5.523438-4.476563 10-10 10zm0 0"
        fill="#185adb" />
    <path
        d="m220.25 7.511719h-6.1875c.503906 1.949219.773438 3.992187.773438 6.097656v35.347656c0 5.578125-4.523438 10.101563-10.101563 10.101563h-94.632813v8.046875c0 5.578125 4.523438 10.101562 10.101563 10.101562h114.191406c5.578125 0 10.101563-4.523437 10.101563-10.101562v-35.347657c0-13.390624-10.855469-24.246093-24.246094-24.246093zm0 0"
        fill="#185adb" />
    <path
        d="m408.066406 165.226562c0 48.550782-39.355468 87.90625-87.90625 87.90625-48.546875 0-87.90625-39.355468-87.90625-87.90625 0-48.546874 39.359375-87.90625 87.90625-87.90625 48.550782 0 87.90625 39.359376 87.90625 87.90625zm0 0"
        fill="#185adb" />
    <path
        d="m352.53125 83.472656c14.570312 15.691406 23.484375 36.703125 23.484375 59.804688 0 48.546875-39.359375 87.90625-87.90625 87.90625-11.429687 0-22.351563-2.183594-32.367187-6.152344 16.050781 17.28125 38.96875 28.101562 64.417968 28.101562 48.550782 0 87.90625-39.355468 87.90625-87.90625 0-37.117187-23.007812-68.863281-55.535156-81.753906zm0 0"
        fill="#185adb" />
    <path
        d="m315.539062 203.953125c-4.554687 0-8.925781-1.808594-12.144531-5.027344l-42.054687-42.054687c-6.707032-6.707032-6.707032-17.582032 0-24.289063 6.707031-6.707031 17.582031-6.707031 24.289062 0l29.910156 29.910157 77.707032-77.707032c6.703125-6.707031 17.582031-6.707031 24.285156 0 6.710938 6.707032 6.710938 17.582032 0 24.289063l-89.847656 89.851562c-3.222656 3.21875-7.589844 5.027344-12.144532 5.027344zm0 0"
        fill="#fff" />
    <path
        d="m417.53125 84.785156c-2.113281-2.113281-4.640625-3.558594-7.320312-4.339844 1.695312 5.824219.25 12.371094-4.34375 16.960938l-89.851563 89.851562c-3.21875 3.222657-7.585937 5.03125-12.144531 5.03125-4.554688 0-8.921875-1.808593-12.140625-5.03125l11.664062 11.667969c3.21875 3.21875 7.589844 5.027344 12.144531 5.027344 4.554688 0 8.921876-1.808594 12.144532-5.027344l89.847656-89.851562c6.707031-6.707031 6.707031-17.582031 0-24.289063zm0 0"
        fill="#fff" />
    <g fill="#fff">
        <path
            d="m204.9375 203.570312h-91.527344c-4.148437 0-7.507812-3.363281-7.507812-7.511718 0-4.148438 3.359375-7.511719 7.507812-7.511719h91.527344c4.148438 0 7.511719 3.363281 7.511719 7.511719 0 4.148437-3.363281 7.511718-7.511719 7.511718zm0 0" />
        <path
            d="m99.074219 126.035156h-50.542969c-4.148438 0-7.511719-3.363281-7.511719-7.511718 0-4.148438 3.363281-7.511719 7.511719-7.511719h50.542969c4.148437 0 7.511719 3.363281 7.511719 7.511719 0 4.148437-3.363282 7.511718-7.511719 7.511718zm0 0" />
        <path
            d="m204.9375 238.414062h-91.527344c-4.148437 0-7.507812-3.363281-7.507812-7.511718 0-4.144532 3.359375-7.507813 7.507812-7.507813h91.527344c4.148438 0 7.511719 3.363281 7.511719 7.507813 0 4.148437-3.363281 7.511718-7.511719 7.511718zm0 0" />
        <path
            d="m236.554688 294.671875h-123.144532c-4.148437 0-7.507812-3.363281-7.507812-7.511719 0-4.148437 3.359375-7.511718 7.507812-7.511718h123.144532c4.148437 0 7.511718 3.363281 7.511718 7.511718 0 4.148438-3.363281 7.511719-7.511718 7.511719zm0 0" />
        <path
            d="m174.984375 329.519531h-61.574219c-4.148437 0-7.507812-3.363281-7.507812-7.511719 0-4.148437 3.359375-7.511718 7.507812-7.511718h61.574219c4.148437 0 7.507813 3.363281 7.507813 7.511718 0 4.148438-3.359376 7.511719-7.507813 7.511719zm0 0" />
        <path
            d="m204.9375 385.871094h-91.527344c-4.148437 0-7.507812-3.363282-7.507812-7.511719s3.359375-7.511719 7.507812-7.511719h91.527344c4.148438 0 7.511719 3.363282 7.511719 7.511719s-3.363281 7.511719-7.511719 7.511719zm0 0" />
        <path
            d="m236.554688 420.714844h-123.144532c-4.148437 0-7.507812-3.363282-7.507812-7.511719 0-4.144531 3.359375-7.507813 7.507812-7.507813h123.144532c4.148437 0 7.511718 3.363282 7.511718 7.507813 0 4.148437-3.363281 7.511719-7.511718 7.511719zm0 0" />
    </g>
    <path
        d="m87.300781 212.375c0 12.609375-10.21875 22.828125-22.828125 22.828125-12.605468 0-22.828125-10.21875-22.828125-22.828125 0-12.605469 10.222657-22.828125 22.828125-22.828125 12.609375 0 22.828125 10.222656 22.828125 22.828125zm0 0"
        fill="#185adb" />
    <path
        d="m87.300781 304.585938c0 12.605468-10.21875 22.824218-22.828125 22.824218-12.605468 0-22.828125-10.21875-22.828125-22.824218 0-12.609376 10.222657-22.828126 22.828125-22.828126 12.609375 0 22.828125 10.21875 22.828125 22.828126zm0 0"
        fill="#185adb" />
    <path
        d="m87.300781 395.78125c0 12.605469-10.21875 22.828125-22.828125 22.828125-12.605468 0-22.828125-10.222656-22.828125-22.828125 0-12.609375 10.222657-22.828125 22.828125-22.828125 12.609375 0 22.828125 10.21875 22.828125 22.828125zm0 0"
        fill="#185adb" />
    <path
        d="m204.9375 203.570312h-91.527344c-4.148437 0-7.507812-3.363281-7.507812-7.511718 0-4.148438 3.359375-7.511719 7.507812-7.511719h91.527344c4.148438 0 7.511719 3.363281 7.511719 7.511719 0 4.148437-3.363281 7.511718-7.511719 7.511718zm0 0" />
    <path
        d="m99.074219 126.035156h-50.542969c-4.148438 0-7.511719-3.363281-7.511719-7.511718 0-4.148438 3.363281-7.511719 7.511719-7.511719h50.542969c4.148437 0 7.511719 3.363281 7.511719 7.511719 0 4.148437-3.363282 7.511718-7.511719 7.511718zm0 0" />
    <path
        d="m204.9375 238.414062h-91.527344c-4.148437 0-7.507812-3.363281-7.507812-7.511718 0-4.144532 3.359375-7.507813 7.507812-7.507813h91.527344c4.148438 0 7.511719 3.363281 7.511719 7.507813 0 4.148437-3.363281 7.511718-7.511719 7.511718zm0 0" />
    <path
        d="m236.554688 294.671875h-123.144532c-4.148437 0-7.507812-3.363281-7.507812-7.511719 0-4.148437 3.359375-7.511718 7.507812-7.511718h123.144532c4.148437 0 7.511718 3.363281 7.511718 7.511718 0 4.148438-3.363281 7.511719-7.511718 7.511719zm0 0" />
    <path
        d="m174.984375 329.519531h-61.574219c-4.148437 0-7.507812-3.363281-7.507812-7.511719 0-4.148437 3.359375-7.511718 7.507812-7.511718h61.574219c4.148437 0 7.507813 3.363281 7.507813 7.511718 0 4.148438-3.359376 7.511719-7.507813 7.511719zm0 0" />
    <path
        d="m204.9375 385.871094h-91.527344c-4.148437 0-7.507812-3.363282-7.507812-7.511719s3.359375-7.511719 7.507812-7.511719h91.527344c4.148438 0 7.511719 3.363282 7.511719 7.511719s-3.363281 7.511719-7.511719 7.511719zm0 0" />
    <path
        d="m236.554688 420.714844h-123.144532c-4.148437 0-7.507812-3.363282-7.507812-7.511719 0-4.144531 3.359375-7.507813 7.507812-7.507813h123.144532c4.148437 0 7.511718 3.363282 7.511718 7.507813 0 4.148437-3.363281 7.511719-7.511718 7.511719zm0 0" />
    <path
        d="m64.472656 242.714844c-16.730468 0-30.339844-13.609375-30.339844-30.339844s13.609376-30.339844 30.339844-30.339844c16.730469 0 30.339844 13.609375 30.339844 30.339844s-13.609375 30.339844-30.339844 30.339844zm0-45.65625c-8.445312 0-15.316406 6.871094-15.316406 15.316406s6.871094 15.316406 15.316406 15.316406c8.445313 0 15.316406-6.871094 15.316406-15.316406s-6.871093-15.316406-15.316406-15.316406zm0 0" />
    <path
        d="m64.472656 334.921875c-16.730468 0-30.339844-13.609375-30.339844-30.339844 0-16.726562 13.609376-30.339843 30.339844-30.339843 16.730469 0 30.339844 13.613281 30.339844 30.339843 0 16.730469-13.609375 30.339844-30.339844 30.339844zm0-45.65625c-8.445312 0-15.316406 6.871094-15.316406 15.320313 0 8.445312 6.871094 15.316406 15.316406 15.316406 8.445313 0 15.316406-6.871094 15.316406-15.316406 0-8.449219-6.871093-15.320313-15.316406-15.320313zm0 0" />
    <path
        d="m64.472656 426.121094c-16.730468 0-30.339844-13.609375-30.339844-30.339844s13.609376-30.339844 30.339844-30.339844c16.730469 0 30.339844 13.609375 30.339844 30.339844s-13.609375 30.339844-30.339844 30.339844zm0-45.65625c-8.445312 0-15.316406 6.871094-15.316406 15.316406s6.871094 15.316406 15.316406 15.316406c8.445313 0 15.316406-6.871094 15.316406-15.316406s-6.871093-15.316406-15.316406-15.316406zm0 0" />
    <path
        d="m290.941406 127.269531c-4.664062-4.660156-10.863281-7.230469-17.457031-7.230469s-12.792969 2.570313-17.453125 7.230469c-4.664062 4.664063-7.234375 10.863281-7.234375 17.457031s2.570313 12.792969 7.230469 17.453126l42.054687 42.054687c4.660157 4.660156 10.863281 7.230469 17.457031 7.230469s12.789063-2.570313 17.453126-7.230469l89.851562-89.851563c4.664062-4.664062 7.230469-10.863281 7.230469-17.453124 0-6.59375-2.566407-12.792969-7.230469-17.457032-4.660156-4.664062-10.863281-7.230468-17.457031-7.230468s-12.792969 2.566406-17.453125 7.230468l-9.90625 9.90625c-7.339844-5.601562-15.394532-10.09375-23.929688-13.34375v-11.230468c0-13.613282-11.074218-24.6875-24.683594-24.6875h-77.40625v-8.570313c0-17.394531-14.152343-31.546875-31.546874-31.546875h-86.324219c-17.394531 0-31.546875 14.152344-31.546875 31.546875v35.644531c0 9.664063 7.863281 17.527344 17.527344 17.527344h114.363281c9.664062 0 17.527343-7.863281 17.527343-17.527344v-12.050781h77.402344c5.328125 0 9.664063 4.335937 9.664063 9.664063v6.917968c-6.183594-1.25-12.511719-1.914062-18.914063-1.914062-52.613281 0-95.417968 42.804687-95.417968 95.417968 0 52.613282 42.804687 95.417969 95.417968 95.417969 6.417969 0 12.746094-.644531 18.914063-1.882812v228.554687c0 5.328125-4.335938 9.660156-9.664063 9.660156h-304.226562c-5.328125 0-9.660156-4.332031-9.660156-9.660156v-422.511718c0-5.328126 4.332031-9.664063 9.660156-9.664063h49.933594c4.148437 0 7.511718-3.363281 7.511718-7.511719 0-4.148437-3.363281-7.511718-7.511718-7.511718h-49.933594c-13.609375 0-24.683594 11.074218-24.683594 24.6875v422.511718c0 13.609375 11.074219 24.683594 24.683594 24.683594h304.230468c13.609376 0 24.683594-11.074219 24.683594-24.683594v-232.898437c11.960938-4.550781 22.992188-11.496094 32.429688-20.632813 17.84375-17.277344 28.144531-40.441406 28.996094-65.226562.140624-4.144532-3.101563-7.621094-7.25-7.765625-4.117188-.136719-7.621094 3.101562-7.765626 7.25-1.199218 34.886719-24.140624 63.691406-55.644531 73.742187-.433593.101563-.855469.234375-1.253906.410156-7.414063 2.230469-15.285156 3.425782-23.449219 3.425782-44.328125 0-80.394531-36.066406-80.394531-80.394532 0-44.328124 36.066406-80.394531 80.394531-80.394531 17.027344 0 33.484375 5.382813 47.136719 15.277344l-51.757813 51.761719zm-53.957031-60.078125c0 1.382813-1.121094 2.503906-2.503906 2.503906h-114.363281c-1.382813 0-2.503907-1.121093-2.503907-2.503906v-35.644531c0-9.113281 7.410157-16.523437 16.523438-16.523437h86.324219c9.109374 0 16.523437 7.410156 16.523437 16.523437zm161.574219 22.90625c1.824218-1.828125 4.25-2.832031 6.828125-2.832031 2.582031 0 5.007812 1.007813 6.835937 2.832031 3.765625 3.765625 3.765625 9.898438 0 13.664063l-89.855468 89.851562c-1.824219 1.824219-4.25 2.832031-6.832032 2.832031-2.582031 0-5.007812-1.007812-6.832031-2.832031l-42.054687-42.054687c-1.824219-1.824219-2.828126-4.25-2.828126-6.832032 0-2.582031 1.003907-5.007812 2.832032-6.832031 1.824218-1.824219 4.25-2.832031 6.832031-2.832031 2.578125 0 5.007813 1.007812 6.832031 2.832031l29.910156 29.910157c2.933594 2.933593 7.6875 2.933593 10.621094 0zm0 0" />
</svg>