<svg id="Capa_1" enable-background="new 0 0 512 512" height="512" viewBox="0 0 512 512" width="512"
    xmlns="http://www.w3.org/2000/svg">
    <g>
        <g>
            <path d="m504.5 134.5v312c0 11.046-8.954 20-20 20h-457c-11.046 0-20-8.954-20-20v-312z" fill="#faf8f8" />
            <g>
                <path
                    d="m297.998 300.5c0-23.196-18.804-42-42-42-7.031 0-13.659 1.728-19.482 4.782-13.386 7.021-19.327 21.053-19.327 37.218 0 23.196 15.613 36.457 38.809 36.457 16.214 0 30.282-3.645 37.282-17.099 3.014-5.792 4.718-12.376 4.718-19.358z"
                    fill="#185adb" />
                <path
                    d="m293.968 318.47c-6.73 14.21-21.2 24.03-37.97 24.03-23.2 0-42-18.8-42-42 0-16.77 9.82-31.24 24.03-37.97-2.59 5.45-4.03 11.54-4.03 17.97 0 23.2 18.8 42 42 42 6.43 0 12.52-1.44 17.97-4.03z"
                    fill="#174EBD" />
            </g>
            <g>
                <path
                    d="m436.996 300.5c0-23.196-18.804-42-42-42-7.031 0-13.659 1.728-19.482 4.782-13.386 7.021-19.327 21.053-19.327 37.218 0 23.196 15.613 36.457 38.809 36.457 16.214 0 30.282-3.645 37.282-17.099 3.014-5.792 4.718-12.376 4.718-19.358z"
                    fill="#185adb" />
                <path
                    d="m432.966 318.47c-6.73 14.21-21.2 24.03-37.97 24.03-23.2 0-42-18.8-42-42 0-16.77 9.82-31.24 24.03-37.97-2.59 5.45-4.03 11.54-4.03 17.97 0 23.2 18.8 42 42 42 6.43 0 12.52-1.44 17.97-4.03z"
                    fill="#174EBD" />
            </g>
            <path
                d="m504.5 154.5v-20l-276.011-12.798-220.989 12.798v20 292c0 11.046 8.954 20 20 20h15c-8.28 0-15-6.72-15-15v-291c0-3.314 2.686-6 6-6z"
                fill="#f0e9e6" />
            <g>
                <path d="m504.5 62.5v72.5h-497v-72.5c0-11.046 8.954-20 20-20h457c11.046 0 20 8.954 20 20z"
                    fill="#185adb" />
                <g fill="#174EBD">
                    <path
                        d="m235.258 114.5c-8.255 0-14.947-6.716-14.947-15s6.692-15 14.947-15h208.315c8.255 0 14.947 6.716 14.947 15s-6.692 15-14.947 15z" />
                    <ellipse cx="168.369" cy="99.5" rx="14.947" ry="15" />
                    <path d="m178.861 110.184 12.874-12.869-13.139 1.179z" />
                    <path d="m158.092 88.608 12.562-12.516-2.693 10.408z" />
                    <ellipse cx="105.534" cy="99.5" rx="14.947" ry="15" />
                    <path d="m116.053 110.157 12.382-12.499-12.674.836z" />
                    <path d="m95.257 88.608 12.371-12.459-2.502 10.351z" />
                    <ellipse cx="40.447" cy="99.5" rx="14.947" ry="15" />
                    <path d="m51.269 109.846 12.721-13.186-13.139 1.381z" />
                    <path d="m30.17 88.608 11.622-12.038-1.753 9.93z" />
                </g>
                <ellipse cx="181.349" cy="86.5" fill="#185adb" rx="14.947" ry="15" />
                <path d="m225.014 88.577 12.971-12.991-3.025 14.276z" fill="#3f597d" />
                <path d="m454.33 109.915 13.149-13.179-10.185 3.381z" fill="#3f597d" />
                <ellipse cx="118.446" cy="86.5" fill="#185adb" rx="14.947" ry="15" />
                <ellipse cx="52.995" cy="86.5" fill="#185adb" rx="14.947" ry="15" />
                <path
                    d="m248.237 101.5c-8.255 0-14.947-6.716-14.947-15s6.692-15 14.947-15h208.315c8.255 0 14.947 6.716 14.947 15s-6.692 15-14.947 15z"
                    fill="#faf8f8" />
            </g>
            <path
                d="m143.393 221 226.628 2c5.523 0 10-4.477 10-10l3.479-7v-30c0-5.523-4.477-10-10-10h-224l-6.107 5c-5.523 0-10 4.477-10 10v30c0 5.523 4.477 10 10 10z"
                fill="#185adb" />
            <path
                d="m383.5 206v10c0 5.523-4.477 10-10 10h-234c-5.523 0-10-4.477-10-10v-40c0-5.523 4.477-10 10-10h10v33c0 3.866 3.134 7 7 7z"
                fill="#174EBD" />
            <g>
                <path
                    d="m159 300.5c0-23.196-18.804-42-42-42-7.031 0-13.659 1.728-19.482 4.782-13.386 7.021-19.327 21.053-19.327 37.218 0 23.196 15.613 36.457 38.809 36.457 16.214 0 30.282-3.645 37.282-17.099 3.014-5.792 4.718-12.376 4.718-19.358z"
                    fill="#185adb" />
                <path
                    d="m154.97 318.47c-6.73 14.21-21.2 24.03-37.97 24.03-23.2 0-42-18.8-42-42 0-16.77 9.82-31.24 24.03-37.97-2.59 5.45-4.03 11.54-4.03 17.97 0 23.2 18.8 42 42 42 6.43 0 12.52-1.44 17.97-4.03z"
                    fill="#174EBD" />
            </g>
        </g>
        <g>
            <path
                d="m29.36 89c0 12.407 10.121 22.5 22.561 22.5s22.56-10.093 22.56-22.5-10.12-22.5-22.56-22.5-22.561 10.093-22.561 22.5zm30.121 0c0 4.136-3.392 7.5-7.561 7.5s-7.56-3.364-7.56-7.5 3.392-7.5 7.561-7.5 7.56 3.364 7.56 7.5z" />
            <path
                d="m139.744 89c0-12.407-10.121-22.5-22.561-22.5s-22.56 10.093-22.56 22.5 10.121 22.5 22.561 22.5 22.56-10.093 22.56-22.5zm-30.121 0c0-4.136 3.392-7.5 7.561-7.5s7.561 3.364 7.561 7.5-3.392 7.5-7.561 7.5-7.561-3.364-7.561-7.5z" />
            <path
                d="m203.125 89c0-12.407-10.121-22.5-22.561-22.5s-22.561 10.093-22.561 22.5 10.121 22.5 22.561 22.5 22.561-10.093 22.561-22.5zm-30.122 0c0-4.136 3.392-7.5 7.561-7.5s7.561 3.364 7.561 7.5-3.392 7.5-7.561 7.5-7.561-3.364-7.561-7.5z" />
            <path
                d="m458.809 111.5c12.439 0 22.561-10.093 22.561-22.5s-10.121-22.5-22.561-22.5h-210.849c-12.44 0-22.561 10.093-22.561 22.5s10.121 22.5 22.561 22.5zm-218.41-22.5c0-4.136 3.392-7.5 7.561-7.5h210.849c4.169 0 7.561 3.364 7.561 7.5s-3.392 7.5-7.561 7.5h-210.849c-4.169 0-7.561-3.364-7.561-7.5z" />
            <path
                d="m484.5 34h-391.5c-4.142 0-7.5 3.358-7.5 7.5s3.358 7.5 7.5 7.5h391.5c6.893 0 12.5 5.607 12.5 12.5v64.5h-482v-64.5c0-6.893 5.607-12.5 12.5-12.5h30.5c4.142 0 7.5-3.358 7.5-7.5s-3.358-7.5-7.5-7.5h-30.5c-15.164 0-27.5 12.336-27.5 27.5v389c0 15.164 12.336 27.5 27.5 27.5h457c15.164 0 27.5-12.336 27.5-27.5v-48.5c0-4.142-3.357-7.5-7.5-7.5s-7.5 3.358-7.5 7.5v48.5c0 6.893-5.607 12.5-12.5 12.5h-457c-6.893 0-12.5-5.607-12.5-12.5v-309.5h482v226c0 4.142 3.357 7.5 7.5 7.5s7.5-3.358 7.5-7.5v-305.5c0-15.164-12.337-27.5-27.5-27.5z" />
            <path
                d="m373.5 218.5h-57.5c-4.143 0-7.5 3.358-7.5 7.5s3.357 7.5 7.5 7.5h57.5c9.649 0 17.5-7.851 17.5-17.5v-40c0-9.649-7.851-17.5-17.5-17.5h-234c-9.649 0-17.5 7.851-17.5 17.5v40c0 9.649 7.851 17.5 17.5 17.5h141.5c4.143 0 7.5-3.358 7.5-7.5s-3.357-7.5-7.5-7.5h-141.5c-1.378 0-2.5-1.122-2.5-2.5v-40c0-1.378 1.122-2.5 2.5-2.5h234c1.379 0 2.5 1.122 2.5 2.5v40c0 1.378-1.121 2.5-2.5 2.5z" />
            <path
                d="m256 251c-27.294 0-49.5 22.206-49.5 49.5s22.206 49.5 49.5 49.5 49.5-22.206 49.5-49.5-22.206-49.5-49.5-49.5zm0 84c-19.023 0-34.5-15.477-34.5-34.5s15.477-34.5 34.5-34.5 34.5 15.477 34.5 34.5-15.477 34.5-34.5 34.5z" />
            <path
                d="m395 251c-27.294 0-49.5 22.206-49.5 49.5s22.206 49.5 49.5 49.5 49.5-22.206 49.5-49.5-22.206-49.5-49.5-49.5zm0 84c-19.023 0-34.5-15.477-34.5-34.5s15.477-34.5 34.5-34.5 34.5 15.477 34.5 34.5-15.477 34.5-34.5 34.5z" />
            <path
                d="m117 251c-27.294 0-49.5 22.206-49.5 49.5s22.206 49.5 49.5 49.5c6.541 0 12.899-1.258 18.9-3.738 3.828-1.583 5.648-5.968 4.066-9.796-1.583-3.829-5.968-5.649-9.796-4.066-4.175 1.725-8.606 2.6-13.17 2.6-19.023 0-34.5-15.477-34.5-34.5s15.477-34.5 34.5-34.5 34.5 15.477 34.5 34.5c0 3.648-.565 7.237-1.679 10.667-1.279 3.94.877 8.17 4.817 9.45 3.941 1.28 8.171-.878 9.45-4.817 1.601-4.929 2.412-10.077 2.412-15.3 0-27.294-22.206-49.5-49.5-49.5z" />
            <path
                d="m157 365h-70c-4.142 0-7.5 3.358-7.5 7.5s3.358 7.5 7.5 7.5h70c4.142 0 7.5-3.358 7.5-7.5s-3.358-7.5-7.5-7.5z" />
            <path
                d="m157 395h-80c-4.142 0-7.5 3.358-7.5 7.5s3.358 7.5 7.5 7.5h80c4.142 0 7.5-3.358 7.5-7.5s-3.358-7.5-7.5-7.5z" />
            <path
                d="m157 425h-80c-4.142 0-7.5 3.358-7.5 7.5s3.358 7.5 7.5 7.5h80c4.142 0 7.5-3.358 7.5-7.5s-3.358-7.5-7.5-7.5z" />
            <path
                d="m296 365h-70c-4.142 0-7.5 3.358-7.5 7.5s3.358 7.5 7.5 7.5h70c4.143 0 7.5-3.358 7.5-7.5s-3.357-7.5-7.5-7.5z" />
            <path
                d="m296 395h-80c-4.142 0-7.5 3.358-7.5 7.5s3.358 7.5 7.5 7.5h80c4.143 0 7.5-3.358 7.5-7.5s-3.357-7.5-7.5-7.5z" />
            <path
                d="m296 425h-80c-4.142 0-7.5 3.358-7.5 7.5s3.358 7.5 7.5 7.5h80c4.143 0 7.5-3.358 7.5-7.5s-3.357-7.5-7.5-7.5z" />
            <path
                d="m435 365h-70c-4.143 0-7.5 3.358-7.5 7.5s3.357 7.5 7.5 7.5h70c4.143 0 7.5-3.358 7.5-7.5s-3.357-7.5-7.5-7.5z" />
            <path
                d="m435 395h-80c-4.143 0-7.5 3.358-7.5 7.5s3.357 7.5 7.5 7.5h80c4.143 0 7.5-3.358 7.5-7.5s-3.357-7.5-7.5-7.5z" />
            <path
                d="m435 425h-80c-4.143 0-7.5 3.358-7.5 7.5s3.357 7.5 7.5 7.5h80c4.143 0 7.5-3.358 7.5-7.5s-3.357-7.5-7.5-7.5z" />
        </g>
    </g>
</svg>